<?xml version="1.0" encoding="utf-8"?>
<!-- Generator: Adobe Illustrator 17.0.0, SVG Export Plug-In . SVG Version: 6.00 Build 0)  -->
<!DOCTYPE svg PUBLIC "-//W3C//DTD SVG 1.1//EN" "http://www.w3.org/Graphics/SVG/1.1/DTD/svg11.dtd">
<svg version="1.1" id="Layer_1" xmlns="http://www.w3.org/2000/svg" xmlns:xlink="http://www.w3.org/1999/xlink" x="0px" y="0px"
	 width="520px" height="500px" viewBox="0 0 520 500" enable-background="new 0 0 520 500" xml:space="preserve">
<g>
	<g>
		<path d="M502.39,251.589c-0.131,44.672-13.059,88.327-37.113,125.955c-23.642,36.984-57.67,66.805-96.778,86.535
			c-10.34,5.217-21.077,9.638-32.037,13.372c-2.572,0.876-5.164,1.69-7.763,2.483c-1.934,0.59-3.842,1.06-7.359,1.849
			c-6.24,1.399-12.542,2.507-18.869,3.428c-23.357,3.401-47.189,3.397-70.583,0.38c-44.654-5.759-87.358-23.807-122.801-51.517
			c-34.419-26.909-61.187-63.154-76.679-103.996c-15.994-42.167-18.907-88.807-9.113-132.761
			c9.539-42.811,31.768-82.174,62.359-113.457c15.343-15.689,32.897-29.156,51.806-40.261c9.597-5.636,19.609-10.55,29.865-14.862
			c5.326-2.239,10.745-4.254,16.213-6.116c2.572-0.876,5.164-1.69,7.763-2.483c1.974-0.602,4.925-1.317,8.705-2.143
			c90.105-19.689,186.87,12.139,246.663,82.481C482.403,142.515,502.228,196.45,502.39,251.589
			c-0.003-0.936,11.594-1.995,11.591-3.106c-0.131-44.672-13.059-88.327-37.113-125.955c-23.642-36.984-57.669-66.805-96.778-86.535
			C338.772,15.148,291.923,6.518,245.863,9.921c-21.925,1.62-43.419,6.501-64.443,12.791c-21.105,6.314-41.286,15.258-60.104,26.715
			c-37.359,22.746-68.275,55.595-88.7,94.258c-20.976,39.706-29.645,85.182-25.57,129.838
			c8.163,89.438,69.926,166.202,152.425,199.336c43.193,17.348,91.046,22.054,136.911,14.61
			c42.911-6.964,84.676-22.885,119.836-48.615c60.449-44.235,97.541-115.358,97.762-190.371
			C513.979,249.441,502.394,250.455,502.39,251.589z"/>
	</g>
</g>
<path fill="#020202" d="M307.758,97.56c0-9.271-8.642-16.787-19.302-16.787c-1.266,0-2.505,0.106-3.699,0.31
	c-3.402-9.017-13.156-15.525-24.65-15.525c-11.462,0-21.19,6.47-24.618,15.435c-1.018-0.145-2.064-0.219-3.131-0.219
	c-10.66,0-19.306,7.516-19.306,16.787c0,6.058,3.695,11.375,9.227,14.322l1.207,22.723c-2.78,4.839-4.348,10.306-4.348,16.081
	c0,5.458,1.437,10.611,3.933,15.247c-0.887-0.165-1.721-0.298-2.703-0.51c0.478,0.474,2.149,2.363,5.127,4.381
	c1.663,2.3,3.577,4.448,5.776,6.36c7.497,6.516,17.856,10.552,29.295,10.552c11.431,0,21.789-4.036,29.286-10.552
	c2.334-2.03,4.352-4.322,6.078-6.787c2.591-1.849,4.06-3.511,4.505-3.95c-0.851,0.184-1.559,0.294-2.338,0.443
	c2.478-4.62,3.897-9.749,3.897-15.18c0-4.902-1.126-9.569-3.167-13.828v-25.137C304.194,108.743,307.758,103.508,307.758,97.56z
	 M260.126,71.086c3.978-0.09,7.578,0.964,10.489,2.774c3.073,1.908,5.371,4.659,6.529,7.794c1.347,3.648,1.167,7.806-0.82,11.458
	c-1.753,3.229-4.884,6.058-9.579,7.802c-1.64,0.6-3.532-0.059-4.231-1.481c-0.698-1.426,0.072-3.068,1.708-3.672
	c3.113-1.156,5.159-2.974,6.272-5.035c1.279-2.343,1.383-5.008,0.518-7.359c-0.739-1.991-2.19-3.734-4.132-4.941
	c-1.834-1.14-4.1-1.803-6.61-1.744c-1.775,0.035-3.249-1.187-3.289-2.731C256.945,72.403,258.35,71.118,260.126,71.086z
	 M232.471,86.192c3.019-0.067,5.754,0.733,7.961,2.108c2.334,1.446,4.077,3.535,4.956,5.909c1.023,2.774,0.887,5.925-0.617,8.699
	c-1.334,2.449-3.708,4.596-7.272,5.917c-1.243,0.459-2.676-0.039-3.208-1.121c-0.527-1.081,0.054-2.328,1.293-2.79
	c2.361-0.874,3.92-2.257,4.767-3.817c0.964-1.779,1.05-3.801,0.388-5.588c-0.559-1.509-1.663-2.833-3.136-3.75
	c-1.388-0.862-3.109-1.368-5.015-1.325c-1.347,0.024-2.465-0.897-2.496-2.073C230.06,87.192,231.128,86.22,232.471,86.192z
	 M260.567,181.847c-8.628,0-16.544-2.641-22.753-7.034c3.28,0.639,7.029,0.929,11.331,0.584c5.326-0.502,9.079-2.481,11.255-5.012
	c2.176,2.527,5.929,4.51,11.246,5.012c4.501,0.361,8.412,0.035,11.795-0.67C277.211,179.175,269.249,181.847,260.567,181.847z
	 M272.327,160.64c-4.033-2.328-9.2-3.66-11.922-1.211c-2.73-2.449-7.898-1.113-11.922,1.211c-7.425,4.287-11.647,6.43-18.698,6.136
	c-3.343-4.761-5.308-10.333-5.308-16.317c0-1.818,0.18-3.601,0.518-5.333c7.642-0.117,24.695-1.07,38.365-6.861
	c0.788-0.337,1.563-0.693,2.325-1.062c6.182,2.696,13.382,5.2,20.726,6.336c3.194,0.494,6.402,0.686,9.534,0.658
	c0.469,2.022,0.721,4.118,0.721,6.266c0,5.983-1.96,11.556-5.303,16.313C284.081,167.152,279.864,164.997,272.327,160.64z
	 M293.259,108.297c-1.239,0.466-2.672-0.039-3.199-1.121c-0.527-1.081,0.054-2.328,1.298-2.79c2.356-0.87,3.915-2.253,4.762-3.821
	c0.964-1.775,1.045-3.801,0.388-5.584c-0.559-1.512-1.663-2.837-3.136-3.75c-1.388-0.862-3.113-1.368-5.015-1.325
	c-1.347,0.027-2.469-0.901-2.496-2.073c-0.036-1.172,1.032-2.143,2.383-2.171c3.019-0.067,5.749,0.737,7.957,2.108
	c2.334,1.45,4.077,3.535,4.956,5.917c1.023,2.77,0.887,5.921-0.622,8.699C299.207,104.833,296.823,106.98,293.259,108.297z"/>
<path fill="#020202" d="M348.844,176.718c1.476-3.109,0.208-6.508-2.827-7.589l-0.114-0.04c-2.121,0.931-4.421,1.902-6.167,2.088
	c-0.604,0.065-1.096-0.07-1.299-0.584c-0.231-0.587-0.173-1.316,1.4-2.092l2.159-1.068c-1.148-0.568-2.244-1.193-3.287-1.877
	c-1.997,0.621-4.075,1.196-5.633,1.183c-0.601-0.005-1.065-0.197-1.201-0.737c-0.155-0.616-0.008-1.343,1.624-1.944l2.167-0.799
	c-1.046-0.909-2.02-1.897-2.916-2.968l-0.082-0.099c-1.942,0.289-3.92,0.507-5.353,0.262c-0.581-0.1-0.999-0.364-1.041-0.929
	c-0.047-0.645,0.213-1.354,1.895-1.703l2.414-0.5c-0.664-1.048-1.276-2.163-1.835-3.347c-2.065,0.014-4.206-0.033-5.659-0.525
	c-0.549-0.186-0.913-0.514-0.868-1.09c0.054-0.657,0.417-1.331,2.103-1.432l3.095-0.189c-0.374-1.057-0.71-2.159-1.009-3.31
	c-2.133,0.018-4.378-0.013-5.885-0.523c-0.549-0.186-0.913-0.514-0.865-1.09c0.054-0.657,0.416-1.33,2.102-1.433l3.927-0.238
	l-0.078-0.427c-0.559-3.149-3.7-4.956-7.014-4.037c-3.317,0.919-5.552,4.214-4.993,7.363c0.983,5.592,2.617,10.455,4.844,14.657
	c-5.459,3.827-11.703,9.297-9.363,14.977l-19.921,13.973c-4.544,3.671-1.003,7.916,3.68,4.133l17.775-16.195
	c5.04,3.506,11.527-1.428,16.467-5.96c3.902,3.391,8.465,5.943,13.594,7.77C343.714,181.47,347.371,179.828,348.844,176.718z
	 M315.16,169.334l-0.876-1.084l5.262-4.611c0.339,0.562,0.691,1.112,1.053,1.647L315.16,169.334z M322.91,168.36l-5.333,3.967
	l-0.861-1.065l5.013-4.391C322.11,167.38,322.506,167.874,322.91,168.36z M290.371,190.645l19.06-13.474l0.204,0.253l-18.493,13.888
	c-1.974,1.595-2.334,3.277-1.714,4.267C287.963,194.909,287.824,192.703,290.371,190.645z M319.96,175.276l-0.824-1.02l5.06-4.434
	c0.425,0.458,0.857,0.902,1.301,1.335L319.96,175.276z"/>
<g>
	<g>
		<path stroke="#000000" stroke-width="0.75" stroke-miterlimit="10" d="M237.191,213.668c-2.338,2.182-3.5,3.278-5.807,5.476
			c-0.357-0.205-0.536-0.308-0.894-0.513c-0.085-2.082-1.011-3.856-2.792-5.315c-1.782-1.459-3.622-2.141-5.508-2.047
			c-2.306,0.116-4.414,1.009-6.308,2.675c-1.895,1.667-4.202,5.998-6.837,12.98c-3.813,10.107-11.345,21.218-11.24,21.626
			c0.095,0.372,3.815,1.771,5.425,3.057c1.61,1.288,3.305,3.663,5.067,7.126c2.395,4.513,3.578,6.774,5.913,11.305
			c2.048,3.974,3.24,6.212,3.617,6.703c0.377,0.49,1.085,1.025,2.119,1.607c1.035,0.582,2.107,0.842,3.22,0.783
			c3.528-0.188,7.141-3.066,10.965-8.628c0.789,0.518,1.183,0.778,1.97,1.298c-4.926,7.75-10.353,11.783-16.504,12.142
			c-3.286,0.192-6.161-1.202-8.667-4.199c-2.505-2.995-4.968-8.077-7.353-15.211c-2.382-7.125-6.632-13.754-8.182-13.744
			c-0.943,0.006-3.418,1.842-5.012,1.99c-0.459-0.002-0.688-0.002-1.147-0.003c0.169,1.79,0.253,2.686,0.421,4.476
			c0.733,7.788-1.109,14.705-5.363,20.804c-4.254,6.1-9.741,9.542-16.612,10.413c-7.331,0.929-13.646-1.447-19.125-7.202
			c2.391-2.799,3.598-4.195,6.034-6.976c0.363,0.215,0.545,0.322,0.908,0.537c-0.125,0.239-0.139,0.703-0.042,1.39
			c0.493,3.511,1.972,6.116,4.413,7.83c2.441,1.714,5.406,2.343,8.926,1.904c4.78-0.597,8.497-2.841,11.208-6.777
			c2.711-3.936,3.754-9.257,3.06-15.985c-0.266-2.581-1.186-6.673-2.716-12.23c-1.529-5.55-2.465-10.03-2.822-13.375
			c-0.66-6.179,2.738-16.767,2.738-16.767c-0.07-0.056-6.265,4.073-9.319,4.418c-3.797,0.43-7.692-0.488-11.656-2.769
			c-3.402-1.958-6.815-2.74-10.181-2.273c-3.325,0.461-6.006,2.031-8.017,4.69c-2.012,2.66-2.747,5.653-2.238,8.968
			c0.448,2.92,1.814,5.151,4.08,6.711c2.265,1.559,4.924,2.117,7.998,1.686c3.68-0.516,6.553-2.259,8.649-5.257
			c0.449,0.208,0.673,0.312,1.121,0.52c-1.535,5.797-5.005,9.043-10.472,9.819c-3.699,0.525-6.867-0.171-9.537-2.11
			c-2.671-1.938-4.316-4.775-4.909-8.531c-0.826-5.234,0.578-10.008,4.303-14.281c3.725-4.273,8.138-6.758,13.154-7.425
			c4.013-0.533,8.363,0.628,12.939,3.35c3.364,2.001,6.2,2.875,8.439,2.633c3.235-0.35,6.39-2.969,9.555-7.863
			c0.693,0.352,1.039,0.529,1.73,0.882c-3.343,4.829-4.678,10.15-4.096,15.932c0.278,2.765,1.264,6.26,2.969,10.394
			c1.697,4.114,3.233,8.959,3.529,9.079c0.314,0.127,2.811-1.09,4.619-1.25c0.825-0.007,1.237-0.01,2.061-0.015
			c1.433-1.481,2.737-3.259,3.917-5.335c1.18-2.076,2.456-5.648,3.901-10.644c1.449-5.009,3.014-9.026,4.601-12.011
			c1.587-2.985,3.919-5.586,7.002-7.783c3.083-2.197,6.385-3.383,9.875-3.549C228.944,208.585,233.273,210.211,237.191,213.668z
			 M192.723,249.979c-0.059-0.119-3.647,1.149-3.643,1.16c0.028,0.073,0.959,0.13,1.279,0.101
			C191.237,251.159,192.723,249.979,192.723,249.979z"/>
		<path stroke="#000000" stroke-width="0.75" stroke-miterlimit="10" d="M275.176,272.681c-4.775,6.441-9.176,9.675-13.381,9.689
			c-1.415,0.005-2.496-0.436-3.25-1.326c-0.754-0.889-1.146-2.833-1.173-5.83c-0.017-1.842-0.025-2.764-0.042-4.606
			c-4.153,5.85-6.997,9.406-8.663,10.629c-1.666,1.222-3.24,1.854-4.734,1.894c-1.572,0.042-2.802-0.434-3.698-1.429
			c-0.896-0.996-1.408-3.356-1.531-7.082c-0.119-3.595-0.178-5.392-0.297-8.987c-1.57,3.563-3.179,6.402-4.842,8.516
			c-0.788-0.474-1.182-0.71-1.972-1.182c3.258-4.82,5.472-9.611,6.581-14.403c2.336-1.196,3.508-1.79,5.861-2.969
			c0.203,7.937,0.304,11.905,0.507,19.841c0.036,1.425,0.148,2.382,0.334,2.871c0.186,0.489,0.664,0.724,1.434,0.706
			c0.847-0.02,1.94-0.666,3.287-1.934c1.346-1.268,2.956-3.289,4.847-6.054c1.892-2.766,2.851-4.271,2.849-4.527
			c-0.03-3.334-0.045-5-0.075-8.334c2.388-1.14,3.586-1.706,5.99-2.828c0.01,6.864,0.015,10.297,0.025,17.161
			c0.003,2.268,0.092,3.811,0.265,4.633c0.174,0.822,0.663,1.233,1.468,1.234c1.878,0.001,4.67-2.385,8.478-7.13
			C274.138,271.811,274.484,272.101,275.176,272.681z"/>
		<path stroke="#000000" stroke-width="0.75" stroke-miterlimit="10" d="M286.318,261.835c4.121-3.651,8.148-5.392,11.993-5.228
			c3.052,0.13,5.435,1.236,7.13,3.301c1.694,2.065,2.443,4.726,2.263,7.973c-0.23,4.16-1.885,7.708-4.911,10.668
			c-3.027,2.961-6.335,4.367-9.977,4.232c-2.646-0.098-4.976-0.921-7.011-2.476c-0.235,8.44-0.352,12.661-0.586,21.101
			c-0.121,4.347-1.445,7.718-3.937,10.129c-2.493,2.41-5.465,3.588-8.952,3.55c-3.671-0.04-6.525-1.616-8.597-4.758
			c1.817-1.778,2.73-2.664,4.569-4.431c0.378,0.31,0.567,0.464,0.944,0.774c-0.265,0.655-0.398,1.185-0.4,1.587
			c-0.008,1.351,0.439,2.533,1.335,3.545c0.896,1.012,2.022,1.525,3.384,1.542c3.644,0.045,5.537-3.549,5.682-10.82
			c0.247-12.462,0.495-24.924,0.742-37.387c-1.471,3.006-3.356,5.86-5.64,8.571c-0.668-0.557-1.003-0.835-1.673-1.39
			c3.229-4.059,5.72-8.657,7.444-13.814c2.538-1.112,3.812-1.663,6.369-2.755C286.419,258.185,286.385,259.402,286.318,261.835z
			 M285.882,277.51c1.918,1.846,4.213,2.812,6.905,2.912c2.5,0.092,4.663-0.84,6.513-2.806c1.848-1.965,2.857-4.476,3.006-7.544
			c0.128-2.628-0.542-4.767-2.022-6.407c-1.48-1.64-3.43-2.512-5.834-2.604c-3.115-0.119-5.872,1.331-8.23,4.338
			C286.084,270.243,286.017,272.665,285.882,277.51z M316.162,274.33c-4.689,6.062-10.47,9.279-17.47,9.735
			c-0.184-0.513-0.276-0.77-0.461-1.283c6.23-1.042,11.62-4.318,16.27-9.88C315.166,273.472,315.498,273.758,316.162,274.33z"/>
		<path stroke="#000000" stroke-width="0.75" stroke-miterlimit="10" d="M344.745,276.765c-5.043,6.018-9.662,8.846-14.022,8.469
			c-4.475-0.388-6.526-2.975-6.148-7.823c0.306-3.935,7.065-12.35,7.065-12.35c-0.016-0.034-1.981,0.051-3.787-0.095
			c-1.177-0.095-3.271-1.074-3.659-0.946c-1.472,0.483-5.234,7.656-8.741,11.307c-0.684-0.594-1.027-0.891-1.714-1.484
			c3.961-4.729,9.251-15.744,10.822-16.228c1.173-0.361,6.584,3,8.755,3.19c2.051,0.179,3.893-0.404,5.537-1.755
			c0.379,0.3,0.568,0.45,0.946,0.75c-2.692,2.534-4.885,5.154-6.591,7.847c-1.707,2.694-2.691,5.738-2.979,9.126
			c-0.09,1.057,0.194,2.08,0.849,3.072c0.655,0.992,1.424,1.528,2.313,1.608c1.467,0.132,2.927-0.302,4.388-1.302
			c1.461-0.999,3.241-2.625,5.358-4.873C343.782,275.871,344.103,276.169,344.745,276.765z"/>
		<path stroke="#000000" stroke-width="0.75" stroke-miterlimit="10" d="M385.669,282.111c-5.401,5.735-10.095,8.326-14.244,7.743
			c-1.562-0.22-2.63-0.773-3.208-1.662c-0.578-0.89-0.414-5.147-0.414-5.147c-0.205-0.107-4.828,3.869-6.515,4.484
			c-1.688,0.615-3.539,0.799-5.559,0.557c-2.937-0.352-5.161-1.576-6.691-3.694c-1.531-2.118-2.133-4.79-1.787-8.026
			c0.1-0.938,0.15-1.407,0.251-2.344c-0.482,0.463-1.612,1.666-3.376,3.615c-0.713-0.581-1.07-0.871-1.786-1.45
			c3.903-4.603,7.949-8.096,12.098-10.471c4.148-2.375,7.692-3.367,10.57-2.999c2.048,0.261,4.006,1.091,5.859,2.485
			c2.207-0.697,3.314-1.041,5.533-1.723c-1.05,7.382-1.575,11.073-2.624,18.455c-0.278,1.955-0.349,3.145-0.214,3.569
			c0.134,0.425,0.622,0.698,1.464,0.82c0.726,0.105,1.905-0.352,3.545-1.365c1.639-1.011,3.498-2.523,5.586-4.529
			C384.762,281.102,385.065,281.438,385.669,282.111z M368.244,278.901c0.588-4.369,0.881-6.554,1.469-10.923
			c-1.374-1.696-3.171-2.69-5.379-2.97c-2.368-0.301-4.627,0.454-6.757,2.262s-3.357,4.225-3.704,7.24
			c-0.301,2.614,0.126,4.714,1.27,6.302c1.144,1.589,2.849,2.52,5.122,2.804c1.771,0.221,3.521-0.392,5.263-1.841
			C367.271,280.328,368.181,279.372,368.244,278.901z"/>
	</g>
</g>
<rect x="25.531" y="371.174" fill="none" width="468.186" height="30"/>
<text transform="matrix(1 0 0 1 71.0799 389.6739)"><tspan x="0" y="0" font-family="'CurlzMT'" font-size="25">Kulinarini</tspan><tspan x="93.677" y="0" font-family="'CourierNewPSMT'" font-size="25">ų</tspan><tspan x="108.679" y="0" font-family="'CurlzMT'" font-size="25"> patiekal</tspan><tspan x="186.205" y="0" font-family="'CourierNewPSMT'" font-size="25">ų</tspan><tspan x="201.207" y="0" font-family="'CurlzMT'" font-size="25"> ruošimo asistentas</tspan></text>
</svg>
