<?xml version="1.0" encoding="utf-8"?>
<!-- Generator: Adobe Illustrator 17.0.0, SVG Export Plug-In . SVG Version: 6.00 Build 0)  -->
<!DOCTYPE svg PUBLIC "-//W3C//DTD SVG 1.1//EN" "http://www.w3.org/Graphics/SVG/1.1/DTD/svg11.dtd">
<svg version="1.1" id="Layer_1" xmlns="http://www.w3.org/2000/svg" xmlns:xlink="http://www.w3.org/1999/xlink" x="0px" y="0px"
	 width="960px" height="560px" viewBox="0 0 960 560" enable-background="new 0 0 960 560" xml:space="preserve">
<g>
	<g>
		<path d="M755.39,281.553c-0.237,89.938-47.863,173.267-122.903,222.089c-19.019,12.374-39.623,22.283-61.055,29.702
			c-11.967,4.143-20.601,6.176-33.791,8.423c-11.56,1.969-23.249,3.138-34.96,3.684c-46.235,2.154-92.727-7.15-134.612-26.802
			c-80.35-37.699-139.366-113.983-152.656-202.038c-13.485-89.345,22.407-179.648,90.522-238.19
			c16.736-14.384,35.282-26.614,54.926-36.644c9.977-5.094,20.29-9.515,30.801-13.381c12.838-4.722,21.42-7,34.592-9.442
			c45.968-8.52,93.958-5.39,138.525,8.609c84.662,26.593,153.772,94.165,179.652,179.328
			C751.777,231.062,755.324,256.309,755.39,281.553c-0.003-0.937,11.594-1.994,11.591-3.106
			c-0.237-89.938-47.863-173.267-122.903-222.089c-38.064-24.765-82.117-39.62-127.258-43.943
			c-44.95-4.305-90.439,2.784-132.923,17.72c-83.801,29.461-150.787,98.22-174.099,184.418
			c-23.626,87.36,1.916,181.648,63.649,247.163c63.16,67.03,157.879,97.434,248.478,83.817
			c43.048-6.47,85.512-21.405,122.153-44.997c36.791-23.689,67.623-56.303,89.247-94.328
			c22.082-38.831,33.538-83.137,33.656-127.761C766.979,279.404,755.393,280.42,755.39,281.553z"/>
	</g>
</g>
<g>
	<g>
		<path stroke="#000000" stroke-width="0.75" stroke-miterlimit="10" d="M448.151,210.715c-3.121,2.915-4.671,4.378-7.751,7.315
			c-0.477-0.274-0.716-0.411-1.193-0.685c-0.113-2.781-1.35-5.151-3.728-7.1c-2.377-1.949-4.834-2.86-7.351-2.734
			c-3.076,0.155-5.891,1.348-8.419,3.573c-2.527,2.224-5.651,8.019-9.121,17.339c-3.738,10.04-15.239,27.996-14.999,28.889
			c0.138,0.515,5.092,2.366,7.24,4.085c2.148,1.72,4.412,4.893,6.764,9.52c3.197,6.029,4.775,9.05,7.891,15.102
			c2.734,5.309,4.326,8.299,4.827,8.954c0.502,0.655,1.448,1.37,2.829,2.147c1.381,0.778,2.813,1.126,4.297,1.046
			c4.709-0.251,9.528-4.095,14.631-11.525c1.053,0.692,1.579,1.039,2.628,1.734c-4.672,8.14-12.49,15.482-22.023,16.22
			c-4.298,0.332-8.221-1.607-11.566-5.61c-3.342-4.001-6.631-10.789-9.815-20.32c-3.18-9.518-8.853-18.374-10.921-18.36
			c-1.258,0.008-4.562,2.46-6.689,2.657c-0.612-0.002-0.918-0.003-1.53-0.004c0.225,2.392,0.338,3.588,0.563,5.979
			c1.008,9.818-1.499,19.711-7.152,27.792c-5.681,8.12-13.047,12.706-22.166,13.908c-9.603,1.266-19.028-2.461-25.524-9.621
			c3.19-3.739,4.8-5.603,8.05-9.317c0.485,0.287,0.727,0.43,1.211,0.717c-0.167,0.319-0.185,0.939-0.056,1.857
			c0.66,4.691,2.634,8.169,5.892,10.46c3.257,2.291,7.215,3.13,11.911,2.543c6.379-0.797,11.337-3.794,14.955-9.053
			c3.616-5.258,5.008-12.365,4.08-21.352c-0.356-3.448-1.584-8.915-3.628-16.338c-2.042-7.415-3.292-13.399-3.769-17.866
			c-0.882-8.253,3.651-22.398,3.651-22.398c-0.093-0.075-8.361,5.44-12.436,5.901c-5.068,0.574-10.266-0.651-15.557-3.7
			c-4.54-2.616-9.097-3.66-13.588-3.037c-4.438,0.616-8.015,2.713-10.699,6.266c-2.684,3.552-3.665,7.551-2.984,11.979
			c0.599,3.9,2.423,6.881,5.447,8.965c3.022,2.083,6.571,2.829,10.675,2.253c4.911-0.689,8.745-3.017,11.542-7.022
			c0.599,0.277,0.898,0.416,1.496,0.694c-2.047,7.744-6.678,12.08-13.973,13.117c-4.937,0.701-9.165-0.231-12.729-2.82
			c-3.564-2.589-5.762-6.378-6.554-11.395c-1.105-6.992,0.767-13.369,5.739-19.077c4.97-5.708,10.859-9.028,17.554-9.918
			c5.356-0.712,11.161,0.838,17.271,4.476c4.49,2.674,8.275,3.841,11.264,3.517c4.317-0.467,8.527-3.966,12.75-10.503
			c0.924,0.471,1.386,0.706,2.309,1.179c-4.461,6.451-6.241,13.558-5.464,21.283c0.371,3.693,1.688,8.362,3.964,13.885
			c2.265,5.495,4.317,11.969,4.712,12.128c0.419,0.169,3.752-1.455,6.163-1.67c1.101-0.01,1.651-0.014,2.751-0.021
			c1.911-1.978,3.653-4.353,5.227-7.126c1.573-2.772,3.275-7.544,5.203-14.218c1.933-6.691,4.021-12.057,6.139-16.045
			c2.118-3.987,5.23-7.462,9.343-10.397c4.114-2.935,8.522-4.519,13.181-4.741C437.143,203.925,442.921,206.098,448.151,210.715z
			 M388.809,259.22c-0.078-0.159-4.868,1.534-4.861,1.55c0.037,0.097,1.279,0.174,1.707,0.135
			C386.826,260.796,388.809,259.22,388.809,259.22z"/>
		<path stroke="#000000" stroke-width="0.75" stroke-miterlimit="10" d="M498.842,289.549c-6.371,8.604-12.246,12.924-17.857,12.942
			c-1.887,0.006-3.331-0.584-4.336-1.771c-1.006-1.188-1.529-3.783-1.565-7.788c-0.022-2.461-0.033-3.691-0.055-6.152
			c-5.542,7.814-9.338,12.566-11.561,14.197c-2.224,1.632-4.324,2.476-6.318,2.53c-2.097,0.056-3.739-0.579-4.935-1.909
			c-1.194-1.328-1.878-4.483-2.043-9.461c-0.159-4.802-0.238-7.203-0.397-12.005c-2.094,4.759-4.242,8.551-6.462,11.375
			c-1.051-0.633-1.577-0.948-2.632-1.578c4.348-6.438,7.301-12.839,8.781-19.24c3.117-1.598,4.681-2.391,7.821-3.966
			c0.271,10.602,0.407,15.903,0.678,26.505c0.049,1.904,0.197,3.183,0.445,3.835c0.248,0.653,0.885,0.967,1.915,0.943
			c1.13-0.026,2.588-0.889,4.386-2.584c1.798-1.694,3.946-4.393,6.47-8.087c2.523-3.693,3.805-5.705,3.802-6.047
			c-0.04-4.453-0.06-6.679-0.1-11.132c3.186-1.523,4.784-2.278,7.993-3.777c0.013,9.17,0.02,13.755,0.033,22.925
			c0.004,3.028,0.122,5.09,0.354,6.189s0.885,1.647,1.959,1.648c2.505,0.002,6.231-3.186,11.314-9.524
			C497.458,288.387,497.92,288.774,498.842,289.549z"/>
		<path stroke="#000000" stroke-width="0.75" stroke-miterlimit="10" d="M513.712,275.061c5.5-4.877,10.874-7.203,16.006-6.983
			c4.074,0.174,7.255,1.652,9.515,4.41c2.26,2.757,3.257,6.312,3.016,10.651c-0.308,5.558-2.516,10.297-6.555,14.251
			c-4.039,3.955-8.453,5.833-13.313,5.653c-3.53-0.131-6.641-1.23-9.356-3.308c-0.262,9.396-0.523,18.792-0.785,28.188
			c-0.162,5.807-1.929,10.31-5.254,13.53c-3.325,3.221-7.29,4.794-11.945,4.743c-4.899-0.053-8.705-2.16-11.471-6.356
			c2.424-2.375,3.644-3.56,6.097-5.92c0.504,0.413,0.755,0.619,1.258,1.033c-0.352,0.877-0.53,1.583-0.533,2.122
			c-0.011,1.805,0.585,3.383,1.781,4.736c1.195,1.352,2.698,2.038,4.514,2.061c4.862,0.061,7.39-4.74,7.583-14.455
			c0.331-16.647,0.663-33.294,0.994-49.941c-1.965,4.015-4.48,7.827-7.527,11.45c-0.891-0.744-1.337-1.115-2.232-1.857
			c4.309-5.422,7.633-11.564,9.936-18.454c3.387-1.486,5.087-2.222,8.498-3.68C513.847,270.185,513.802,271.811,513.712,275.061z
			 M513.129,296c2.56,2.465,5.623,3.757,9.215,3.889c3.336,0.123,6.222-1.122,8.69-3.748c2.466-2.625,3.813-5.98,4.013-10.077
			c0.171-3.511-0.723-6.369-2.697-8.559c-1.975-2.191-4.579-3.356-7.787-3.478c-4.156-0.158-7.836,1.778-10.984,5.793
			C513.399,286.292,513.309,289.528,513.129,296z M553.535,291.753c-6.258,8.097-13.971,12.396-23.313,13.004
			c-0.246-0.686-0.369-1.028-0.615-1.714c8.315-1.393,15.507-5.768,21.713-13.197C552.207,290.607,552.65,290.989,553.535,291.753z"
			/>
		<path stroke="#000000" stroke-width="0.75" stroke-miterlimit="10" d="M591.678,295.006c-6.732,8.039-12.896,11.817-18.714,11.312
			c-5.971-0.518-8.707-3.974-8.202-10.449c0.41-5.258,9.431-16.498,9.431-16.498c-0.022-0.046-2.644,0.068-5.053-0.127
			c-1.571-0.127-4.367-1.434-4.884-1.265c-1.964,0.644-6.986,10.228-11.667,15.105c-0.913-0.794-1.37-1.191-2.287-1.983
			c5.287-6.317,12.35-21.033,14.445-21.679c1.564-0.482,8.787,4.007,11.683,4.26c2.737,0.239,5.195-0.54,7.39-2.345
			c0.505,0.401,0.758,0.601,1.263,1.003c-3.594,3.385-6.521,6.886-8.798,10.483c-2.277,3.599-3.593,7.666-3.978,12.19
			c-0.12,1.412,0.259,2.778,1.132,4.104c0.873,1.325,1.901,2.041,3.086,2.147c1.957,0.176,3.906-0.403,5.856-1.738
			c1.95-1.334,4.326-3.507,7.151-6.508C590.393,293.812,590.822,294.21,591.678,295.006z"/>
		<path stroke="#000000" stroke-width="0.75" stroke-miterlimit="10" d="M646.288,302.148c-7.209,7.661-13.474,11.122-19.01,10.343
			c-2.084-0.293-3.508-1.031-4.279-2.219c-0.771-1.188-0.551-6.875-0.551-6.875c-0.274-0.143-6.444,5.168-8.695,5.99
			c-2.253,0.821-4.722,1.068-7.419,0.745c-3.919-0.47-6.886-2.107-8.928-4.936c-2.042-2.829-2.844-6.399-2.382-10.721
			c0.134-1.253,0.201-1.879,0.335-3.132c-0.644,0.62-2.153,2.225-4.505,4.829c-0.952-0.776-1.428-1.163-2.384-1.936
			c5.21-6.149,10.611-10.815,16.147-13.988c5.537-3.173,10.267-4.498,14.107-4.007c2.734,0.349,5.346,1.458,7.817,3.32
			c2.946-0.931,4.423-1.391,7.384-2.301c-1.404,9.862-2.106,14.792-3.51,24.654c-0.372,2.61-0.467,4.201-0.288,4.768
			c0.18,0.568,0.831,0.932,1.954,1.095c0.969,0.14,2.541-0.469,4.731-1.822c2.188-1.351,4.669-3.371,7.457-6.05
			C645.079,300.801,645.483,301.25,646.288,302.148z M623.036,297.86c0.786-5.836,1.179-8.754,1.964-14.59
			c-1.833-2.266-4.23-3.593-7.177-3.968c-3.16-0.402-6.176,0.607-9.018,3.022c-2.842,2.416-4.481,5.645-4.946,9.671
			c-0.403,3.492,0.167,6.298,1.694,8.419c1.528,2.123,3.801,3.365,6.834,3.745c2.363,0.296,4.699-0.523,7.024-2.458
			C621.738,299.765,622.952,298.489,623.036,297.86z"/>
	</g>
</g>
<rect x="257.531" y="396" fill="none" width="468.186" height="30"/>
<text transform="matrix(1 0 0 1 316.7704 414.5664)" font-family="'Gabriola'" font-size="28">Kulinarinių patiekalų ruošimo asistentas</text>
<path fill="#020202" d="M538.977,83.326c0-9.271-8.642-16.787-19.302-16.787c-1.266,0-2.505,0.106-3.699,0.31
	c-3.402-9.017-13.156-15.525-24.65-15.525c-11.462,0-21.19,6.47-24.618,15.435c-1.018-0.145-2.064-0.219-3.131-0.219
	c-10.66,0-19.306,7.516-19.306,16.787c0,6.058,3.695,11.375,9.227,14.322l1.207,22.723c-2.78,4.839-4.348,10.306-4.348,16.081
	c0,5.458,1.437,10.611,3.933,15.247c-0.887-0.165-1.721-0.298-2.703-0.51c0.478,0.474,2.149,2.363,5.127,4.381
	c1.663,2.3,3.577,4.448,5.776,6.36c7.497,6.516,17.856,10.552,29.295,10.552c11.431,0,21.789-4.036,29.286-10.552
	c2.334-2.03,4.352-4.322,6.078-6.787c2.591-1.849,4.06-3.511,4.505-3.95c-0.852,0.184-1.559,0.294-2.339,0.443
	c2.478-4.62,3.897-9.749,3.897-15.18c0-4.902-1.126-9.569-3.167-13.828V97.492C535.413,94.51,538.977,89.275,538.977,83.326z
	 M491.344,56.853c3.978-0.09,7.578,0.964,10.489,2.774c3.073,1.908,5.371,4.659,6.529,7.794c1.347,3.648,1.167,7.806-0.82,11.458
	c-1.753,3.229-4.884,6.058-9.579,7.802c-1.64,0.6-3.532-0.059-4.231-1.481c-0.698-1.426,0.072-3.068,1.708-3.672
	c3.113-1.156,5.159-2.974,6.272-5.035c1.279-2.343,1.383-5.008,0.518-7.359c-0.739-1.991-2.19-3.734-4.132-4.941
	c-1.834-1.14-4.1-1.803-6.61-1.744c-1.775,0.035-3.249-1.187-3.289-2.731C488.164,58.17,489.569,56.884,491.344,56.853z
	 M463.689,71.959c3.019-0.067,5.754,0.733,7.961,2.108c2.334,1.446,4.077,3.535,4.956,5.909c1.023,2.774,0.887,5.925-0.617,8.699
	c-1.334,2.449-3.708,4.596-7.272,5.917c-1.243,0.459-2.676-0.039-3.208-1.121c-0.527-1.081,0.054-2.328,1.293-2.79
	c2.361-0.874,3.92-2.257,4.767-3.817c0.964-1.779,1.05-3.801,0.388-5.588c-0.559-1.509-1.663-2.833-3.136-3.75
	c-1.388-0.862-3.109-1.368-5.015-1.325c-1.347,0.024-2.465-0.897-2.496-2.073C461.279,72.958,462.347,71.986,463.689,71.959z
	 M491.786,167.613c-8.628,0-16.544-2.641-22.753-7.034c3.28,0.639,7.029,0.929,11.331,0.584c5.326-0.502,9.079-2.481,11.255-5.012
	c2.176,2.527,5.929,4.51,11.246,5.012c4.501,0.361,8.412,0.035,11.795-0.67C508.43,164.941,500.468,167.613,491.786,167.613z
	 M503.546,146.407c-4.033-2.328-9.2-3.66-11.922-1.211c-2.73-2.449-7.898-1.113-11.922,1.211c-7.425,4.287-11.647,6.43-18.698,6.136
	c-3.343-4.761-5.308-10.333-5.308-16.317c0-1.818,0.18-3.601,0.518-5.333c7.642-0.117,24.695-1.07,38.365-6.861
	c0.788-0.337,1.563-0.693,2.325-1.062c6.182,2.696,13.382,5.2,20.726,6.336c3.194,0.494,6.402,0.686,9.534,0.658
	c0.469,2.022,0.721,4.118,0.721,6.266c0,5.983-1.96,11.556-5.303,16.313C515.3,152.919,511.083,150.764,503.546,146.407z
	 M524.478,94.063c-1.239,0.466-2.672-0.039-3.199-1.121c-0.527-1.081,0.054-2.328,1.298-2.79c2.356-0.87,3.915-2.253,4.762-3.821
	c0.964-1.775,1.045-3.801,0.388-5.584c-0.559-1.512-1.662-2.837-3.136-3.75c-1.388-0.862-3.113-1.368-5.015-1.325
	c-1.347,0.027-2.469-0.901-2.496-2.073c-0.036-1.172,1.032-2.143,2.383-2.171c3.019-0.067,5.749,0.737,7.957,2.108
	c2.334,1.45,4.077,3.535,4.956,5.917c1.023,2.77,0.888,5.921-0.622,8.699C530.425,90.599,528.042,92.746,524.478,94.063z"/>
<path fill="#020202" d="M580.844,173.418c1.476-3.109,0.208-6.508-2.827-7.589l-0.114-0.04c-2.121,0.931-4.421,1.902-6.167,2.088
	c-0.604,0.065-1.096-0.07-1.299-0.584c-0.231-0.587-0.173-1.316,1.4-2.092l2.159-1.068c-1.148-0.568-2.244-1.193-3.287-1.877
	c-1.997,0.621-4.075,1.196-5.633,1.183c-0.601-0.005-1.065-0.197-1.201-0.737c-0.155-0.616-0.008-1.343,1.624-1.944l2.167-0.799
	c-1.046-0.909-2.02-1.897-2.916-2.968l-0.082-0.099c-1.942,0.289-3.92,0.507-5.353,0.262c-0.581-0.1-0.999-0.364-1.041-0.929
	c-0.047-0.645,0.213-1.354,1.895-1.703l2.414-0.5c-0.664-1.048-1.276-2.163-1.835-3.347c-2.065,0.014-4.206-0.033-5.659-0.525
	c-0.549-0.186-0.913-0.514-0.868-1.09c0.054-0.657,0.417-1.331,2.103-1.432l3.095-0.189c-0.374-1.057-0.71-2.159-1.009-3.31
	c-2.133,0.018-4.378-0.013-5.885-0.523c-0.549-0.186-0.913-0.514-0.865-1.09c0.054-0.657,0.416-1.33,2.102-1.433l3.927-0.238
	l-0.078-0.427c-0.559-3.149-3.7-4.956-7.014-4.037c-3.317,0.919-5.552,4.214-4.993,7.363c0.982,5.592,2.617,10.455,4.844,14.657
	c-5.459,3.827-11.703,9.297-9.363,14.977l-19.921,13.973c-4.544,3.671-1.003,7.916,3.68,4.133l17.775-16.195
	c5.04,3.506,11.527-1.428,16.467-5.96c3.903,3.391,8.465,5.943,13.594,7.77C575.714,178.169,579.371,176.527,580.844,173.418z
	 M547.16,166.034l-0.876-1.084l5.262-4.611c0.339,0.562,0.691,1.112,1.053,1.647L547.16,166.034z M554.91,165.06l-5.333,3.967
	l-0.861-1.065l5.013-4.391C554.11,164.08,554.506,164.573,554.91,165.06z M522.371,187.344l19.06-13.474l0.204,0.253l-18.493,13.888
	c-1.974,1.595-2.334,3.277-1.714,4.267C519.963,191.608,519.823,189.403,522.371,187.344z M551.96,171.975l-0.824-1.02l5.06-4.434
	c0.425,0.458,0.857,0.902,1.301,1.335L551.96,171.975z"/>
</svg>
