<?xml version="1.0" encoding="utf-8"?>
<!-- Generator: Adobe Illustrator 17.0.0, SVG Export Plug-In . SVG Version: 6.00 Build 0)  -->
<!DOCTYPE svg PUBLIC "-//W3C//DTD SVG 1.1//EN" "http://www.w3.org/Graphics/SVG/1.1/DTD/svg11.dtd">
<svg version="1.1" id="Layer_1" xmlns="http://www.w3.org/2000/svg" xmlns:xlink="http://www.w3.org/1999/xlink" x="0px" y="0px"
	 width="60px" height="60px" viewBox="0 0 60 60" enable-background="new 0 0 60 60" xml:space="preserve">
<path fill="#020202" d="M40.014,14.531c0-3.808-3.549-6.894-7.927-6.894c-0.52,0-1.029,0.043-1.519,0.127
	c-1.397-3.703-5.403-6.376-10.123-6.376c-4.707,0-8.702,2.657-10.11,6.339c-0.418-0.059-0.848-0.09-1.286-0.09
	c-4.378,0-7.929,3.087-7.929,6.894c0,2.488,1.517,4.672,3.79,5.882l0.496,9.332c-1.142,1.987-1.786,4.232-1.786,6.604
	c0,2.242,0.59,4.358,1.615,6.262c-0.364-0.068-0.707-0.122-1.11-0.209c0.196,0.195,0.883,0.97,2.106,1.799
	c0.683,0.945,1.469,1.827,2.372,2.612c3.079,2.676,7.333,4.334,12.031,4.334c4.694,0,8.948-1.658,12.027-4.334
	c0.959-0.834,1.787-1.775,2.496-2.787c1.064-0.76,1.667-1.442,1.85-1.622c-0.35,0.076-0.64,0.121-0.96,0.182
	c1.018-1.897,1.601-4.004,1.601-6.234c0-2.013-0.463-3.93-1.301-5.679V20.349C38.551,19.124,40.014,16.974,40.014,14.531z
	 M20.452,3.659c1.634-0.037,3.112,0.396,4.308,1.139c1.262,0.784,2.206,1.913,2.681,3.201c0.553,1.498,0.479,3.206-0.337,4.706
	c-0.72,1.326-2.006,2.488-3.934,3.204c-0.674,0.246-1.451-0.024-1.737-0.608c-0.287-0.586,0.03-1.26,0.701-1.508
	c1.279-0.475,2.119-1.221,2.576-2.068c0.525-0.962,0.568-2.057,0.213-3.022c-0.304-0.818-0.899-1.534-1.697-2.029
	c-0.753-0.468-1.684-0.74-2.714-0.716c-0.729,0.014-1.334-0.488-1.351-1.122C19.146,4.2,19.723,3.672,20.452,3.659z M9.094,9.863
	c1.24-0.027,2.363,0.301,3.27,0.866c0.959,0.594,1.675,1.452,2.035,2.427c0.42,1.139,0.364,2.433-0.253,3.573
	c-0.548,1.006-1.523,1.888-2.986,2.43c-0.511,0.188-1.099-0.016-1.318-0.46c-0.217-0.444,0.022-0.956,0.531-1.146
	c0.97-0.359,1.61-0.927,1.958-1.567c0.396-0.731,0.431-1.561,0.159-2.295c-0.229-0.62-0.683-1.164-1.288-1.54
	c-0.57-0.354-1.277-0.562-2.059-0.544c-0.553,0.01-1.012-0.369-1.025-0.851C8.104,10.273,8.543,9.874,9.094,9.863z M20.633,49.147
	c-3.543,0-6.795-1.085-9.344-2.889c1.347,0.262,2.887,0.381,4.654,0.24c2.187-0.206,3.728-1.019,4.622-2.058
	c0.894,1.038,2.435,1.852,4.619,2.058c1.848,0.148,3.455,0.014,4.844-0.275C27.469,48.05,24.199,49.147,20.633,49.147z
	 M25.463,40.438c-1.656-0.956-3.778-1.503-4.896-0.497c-1.121-1.006-3.244-0.457-4.896,0.497c-3.049,1.761-4.783,2.641-7.679,2.52
	c-1.373-1.955-2.18-4.244-2.18-6.701c0-0.747,0.074-1.479,0.213-2.19c3.138-0.048,10.142-0.439,15.756-2.818
	c0.324-0.138,0.642-0.285,0.955-0.436c2.539,1.107,5.496,2.135,8.512,2.602c1.312,0.203,2.629,0.282,3.915,0.27
	c0.192,0.83,0.296,1.691,0.296,2.573c0,2.457-0.805,4.746-2.178,6.699C30.29,43.112,28.558,42.227,25.463,40.438z M34.06,18.941
	c-0.509,0.192-1.097-0.016-1.314-0.46c-0.217-0.444,0.022-0.956,0.533-1.146c0.968-0.357,1.608-0.925,1.956-1.569
	c0.396-0.729,0.429-1.561,0.159-2.293c-0.229-0.621-0.683-1.165-1.288-1.54c-0.57-0.354-1.279-0.562-2.059-0.544
	c-0.553,0.011-1.014-0.37-1.025-0.851c-0.015-0.481,0.424-0.88,0.979-0.892c1.24-0.027,2.361,0.303,3.268,0.866
	c0.959,0.595,1.675,1.452,2.035,2.43c0.42,1.138,0.364,2.432-0.255,3.573C36.502,17.518,35.523,18.4,34.06,18.941z"/>
<path fill="#020202" d="M57.209,51.531c0.606-1.277,0.085-2.673-1.161-3.117l-0.047-0.017c-0.871,0.382-1.816,0.781-2.533,0.857
	c-0.248,0.027-0.45-0.029-0.533-0.24c-0.095-0.241-0.071-0.541,0.575-0.859l0.887-0.439c-0.471-0.233-0.922-0.49-1.35-0.771
	c-0.82,0.255-1.673,0.491-2.314,0.486c-0.247-0.002-0.437-0.081-0.493-0.303c-0.064-0.253-0.003-0.551,0.667-0.798l0.89-0.328
	c-0.43-0.373-0.829-0.779-1.198-1.219l-0.034-0.04c-0.798,0.119-1.61,0.208-2.199,0.108c-0.239-0.041-0.41-0.15-0.428-0.382
	c-0.019-0.265,0.087-0.556,0.778-0.699l0.991-0.205c-0.272-0.43-0.524-0.888-0.753-1.375c-0.848,0.006-1.727-0.014-2.324-0.216
	c-0.225-0.077-0.375-0.211-0.356-0.448c0.022-0.27,0.171-0.547,0.864-0.588l1.271-0.078c-0.154-0.434-0.291-0.887-0.414-1.36
	c-0.876,0.007-1.798-0.005-2.417-0.215c-0.225-0.077-0.375-0.211-0.355-0.448c0.022-0.27,0.171-0.546,0.863-0.589l1.613-0.098
	l-0.032-0.175c-0.23-1.293-1.52-2.035-2.881-1.658c-1.362,0.377-2.28,1.73-2.051,3.024c0.404,2.297,1.075,4.294,1.989,6.02
	c-2.242,1.572-4.806,3.818-3.845,6.151l-8.182,5.739c-1.866,1.508-0.412,3.251,1.511,1.698l7.3-6.651
	c2.07,1.44,4.734-0.586,6.763-2.448c1.603,1.393,3.476,2.441,5.583,3.191C55.101,53.482,56.603,52.808,57.209,51.531z
	 M43.375,48.498l-0.36-0.445l2.161-1.894c0.139,0.231,0.284,0.457,0.432,0.676L43.375,48.498z M46.558,48.098l-2.19,1.629
	l-0.354-0.438l2.059-1.803C46.229,47.696,46.392,47.898,46.558,48.098z M33.194,57.25l7.828-5.534l0.084,0.104l-7.595,5.703
	c-0.811,0.655-0.958,1.346-0.704,1.753C32.205,59.001,32.148,58.096,33.194,57.25z M45.346,50.938l-0.339-0.419l2.078-1.821
	c0.175,0.188,0.352,0.37,0.534,0.548L45.346,50.938z"/>
</svg>
